# xmcd
#
# Track frame offsets:
#	150
#	12000
#	26912
#	38580
#	54497
#	69367
#	83242
#	96690
#	111982
#	123965
#	138870
#	152985
#	167487
#	185027
#	203275
#	221135
#	244825
#	256402
#	276340
#
# Disc length: 3928 seconds
#
# Revision: 2
# Processed by: cddbd v1.5.1PL0 Copyright (c) Steve Scherf et al.
# Submitted via: audiograbber 1.83.01
#
DISCID=0f0f5613
DTITLE=Chicago Blues Masters - Chicago Blues Masters, Vol3, Disc 1
DYEAR=1900
DGENRE=Blues
TTITLE0=Shakey Jake - Everything Gonna Be Alright
TTITLE1=Shakey Jake - Hold That Buss Conductor
TTITLE2=Shakey Jake - Strollin' The Strip
TTITLE3=Shakey Jake - Respect Me Baby
TTITLE4=Shakey Jake - I Will Always Love You
TTITLE5=Shakey Jake - Three Times Seven
TTITLE6=Shakey Jake - Farther On Up The Road
TTITLE7=Shakey Jake - A Hard Road To Travel
TTITLE8=Shakey Jake - Save Your Money Baby
TTITLE9=Shakey Jake - Too Hot To Hold
TTITLE10=Shakey Jake - Long Distance Call
TTITLE11=Shakey Jake - Don't Answer The Door
TTITLE12=Shakey Jake - Love Me Baby
TTITLE13=Lucille Spann - Chains Of Love
TTITLE14=James Cotton - The Sky Is Falling
TTITLE15=James Cotton - Long didstance Operator
TTITLE16=James Cotton - I'm A Free Man
TTITLE17=James Cotton - Can't Live Without Love
TTITLE18=James Cotton - Kiddy Boy
EXTD=Thsi wrongly identifies as disk 2-- these are the real values for disk one
EXTD=of the album.
EXTT0=
EXTT1=
EXTT2=
EXTT3=
EXTT4=
EXTT5=
EXTT6=
EXTT7=
EXTT8=
EXTT9=
EXTT10=
EXTT11=
EXTT12=
EXTT13=
EXTT14=
EXTT15=
EXTT16=
EXTT17=
EXTT18=
PLAYORDER=
